<?xml version="1.0" standalone="no"?>
<!DOCTYPE svg PUBLIC "-//W3C//DTD SVG 20010904//EN"
 "http://www.w3.org/TR/2001/REC-SVG-20010904/DTD/svg10.dtd">
<svg version="1.0" xmlns="http://www.w3.org/2000/svg"
 width="512.000000pt" height="512.000000pt" viewBox="0 0 512.000000 512.000000"
 preserveAspectRatio="xMidYMid meet">
<metadata>
Created by potrace 1.11, written by Peter Selinger 2001-2013
</metadata>
<g transform="translate(0.000000,512.000000) scale(0.100000,-0.100000)"
fill="#000000" stroke="none">
<path d="M1199 4655 c-393 -65 -646 -300 -725 -675 -20 -92 -26 -339 -11 -460
31 -261 140 -593 284 -872 l45 -86 -71 -144 c-39 -80 -71 -148 -71 -152 0 -4
-9 -26 -19 -49 -70 -155 -148 -441 -169 -622 -14 -118 -8 -365 12 -455 56
-264 190 -449 417 -574 224 -123 438 -146 799 -85 275 46 523 131 775 263
l100 53 40 -24 c73 -45 259 -130 374 -172 175 -64 390 -116 581 -139 114 -14
351 -8 425 12 454 119 687 445 679 951 -2 132 -7 191 -29 308 -43 232 -137
496 -262 740 l-45 87 65 133 c129 259 227 553 252 752 4 28 9 58 12 68 11 41
10 306 -2 387 -61 402 -263 639 -631 737 -89 23 -118 26 -279 27 -160 1 -280
-6 -325 -19 -8 -2 -26 -6 -40 -9 -204 -37 -436 -119 -687 -242 l-132 -64 -143
69 c-294 142 -533 219 -793 256 -114 16 -328 16 -426 0z m346 -418 c11 -2 40
-7 65 -11 131 -22 395 -106 495 -158 l26 -14 -83 -64 c-72 -56 -183 -145 -198
-160 -3 -3 -39 -34 -80 -69 -184 -158 -475 -471 -640 -690 -73 -97 -61 -104
-131 69 -49 123 -104 334 -114 440 -31 325 42 524 223 611 102 48 149 57 287
53 72 -2 139 -5 150 -7z m2338 -7 c75 -16 188 -74 234 -119 21 -22 51 -65 67
-96 28 -57 32 -71 42 -135 3 -19 7 -42 10 -50 7 -19 6 -180 -1 -250 -15 -145
-79 -366 -154 -535 l-27 -59 -64 84 c-60 80 -117 151 -185 229 -207 241 -476
494 -733 691 l-83 64 25 13 c65 34 236 94 348 121 122 31 148 35 263 48 33 3
61 7 62 8 7 6 151 -4 196 -14z m-1280 -417 c113 -74 350 -255 465 -357 76 -67
333 -325 402 -404 88 -101 218 -268 301 -389 l70 -103 -42 -62 c-259 -384
-635 -779 -1009 -1059 -19 -14 -79 -56 -133 -93 l-97 -67 -106 73 c-387 265
-765 637 -1061 1044 -106 145 -116 165 -98 190 8 10 54 75 102 143 218 308
542 648 843 883 75 58 310 227 318 228 1 0 21 -12 45 -27z m-1491 -1740 c52
-71 195 -250 223 -280 11 -12 35 -39 54 -60 166 -186 442 -438 659 -602 46
-35 82 -64 80 -66 -12 -12 -222 -88 -313 -114 -163 -45 -277 -63 -405 -64
-296 -3 -454 95 -531 328 -14 43 -19 270 -7 340 16 95 51 239 73 304 22 65
114 271 121 271 2 0 23 -26 46 -57z m3007 -89 c39 -97 84 -251 95 -330 4 -21
10 -64 15 -94 13 -82 11 -256 -5 -330 -35 -166 -119 -272 -246 -311 -102 -31
-298 -43 -413 -25 -16 3 -50 8 -75 11 -104 15 -321 81 -451 138 l-52 24 39 29
c87 64 282 221 329 264 266 243 461 454 640 694 68 91 56 97 124 -70z"/>
<path d="M2537 3414 c-1 -1 -31 -4 -67 -7 -69 -7 -86 -10 -165 -34 -223 -66
-426 -246 -522 -462 -99 -222 -101 -461 -5 -690 42 -98 95 -176 181 -262 143
-142 290 -216 486 -242 452 -61 868 241 955 693 12 58 14 225 5 275 -37 195
-103 329 -230 464 -112 118 -254 200 -416 239 -68 17 -212 34 -222 26z m153
-449 c95 -31 173 -91 225 -172 46 -71 66 -135 69 -220 9 -268 -227 -475 -491
-433 -284 46 -441 356 -311 613 93 184 314 276 508 212z"/>
</g>
</svg>
