<?xml version="1.0" standalone="no"?>
<!DOCTYPE svg PUBLIC "-//W3C//DTD SVG 20010904//EN"
 "http://www.w3.org/TR/2001/REC-SVG-20010904/DTD/svg10.dtd">
<svg version="1.0" xmlns="http://www.w3.org/2000/svg"
 width="700.000000pt" height="700.000000pt" viewBox="0 0 700.000000 700.000000"
 preserveAspectRatio="xMidYMid meet">
<metadata>
Created by potrace 1.11, written by Peter Selinger 2001-2013
</metadata>
<g transform="translate(0.000000,700.000000) scale(0.100000,-0.100000)"
fill="#000000" stroke="none">
<path d="M1817 6384 c-1 -1 -39 -5 -84 -8 -46 -4 -93 -9 -105 -12 -13 -2 -36
-7 -53 -10 -16 -3 -55 -12 -85 -20 -30 -8 -60 -16 -67 -18 -7 -1 -16 -5 -19
-9 -4 -4 -14 -7 -23 -7 -28 0 -213 -95 -281 -143 -329 -235 -491 -599 -484
-1089 1 -106 9 -215 20 -283 47 -294 92 -461 205 -760 52 -139 69 -178 161
-362 l80 -162 -80 -163 c-44 -90 -103 -217 -130 -283 -45 -111 -128 -340 -137
-382 -2 -10 -18 -71 -34 -137 -17 -65 -33 -128 -35 -140 -38 -205 -49 -310
-50 -481 0 -184 15 -305 59 -470 19 -72 90 -236 116 -269 11 -13 19 -27 19
-31 0 -13 81 -113 137 -170 182 -181 443 -309 713 -350 78 -12 362 -13 415 -2
11 3 49 8 85 12 407 43 909 208 1269 416 l70 41 46 -27 c120 -70 332 -172 438
-211 345 -126 527 -172 857 -218 236 -32 456 -25 633 20 205 53 404 160 561
304 103 94 228 306 275 465 53 180 66 284 66 510 0 213 -9 291 -59 540 -27
130 -91 335 -162 517 -48 123 -63 157 -156 345 l-80 163 87 177 c103 213 94
193 146 323 213 544 280 1040 193 1442 -30 139 -27 130 -57 208 -163 431 -489
666 -1012 729 -74 9 -336 7 -420 -3 -395 -48 -752 -161 -1193 -377 l-163 -80
-162 80 c-522 257 -965 379 -1405 385 -62 1 -114 1 -115 0z m278 -589 c149
-24 354 -71 467 -109 136 -45 348 -133 348 -145 0 -3 -29 -26 -63 -51 -77 -56
-241 -186 -327 -259 -35 -31 -78 -67 -94 -81 -85 -73 -333 -314 -467 -456 -56
-60 -215 -244 -279 -322 -19 -24 -44 -55 -56 -69 -12 -14 -52 -67 -90 -119
-38 -51 -72 -94 -75 -94 -7 0 -90 192 -132 305 -27 73 -84 283 -93 345 -3 19
-7 42 -9 50 -19 68 -27 395 -13 491 22 146 101 307 183 371 82 66 214 126 315
145 13 2 26 6 29 8 6 6 308 -2 356 -10z m3205 -10 c102 -20 263 -100 326 -162
62 -61 115 -163 145 -278 21 -79 23 -113 23 -270 -1 -165 -6 -220 -38 -380
-13 -67 -59 -231 -81 -295 -36 -100 -127 -310 -134 -309 -3 0 -47 55 -98 122
-271 362 -660 770 -993 1043 -19 16 -37 31 -40 34 -8 10 -231 182 -277 215
-24 17 -43 33 -43 36 0 3 19 13 43 23 23 10 56 25 72 33 140 69 506 169 685
187 25 2 77 8 115 11 39 4 71 8 72 9 8 6 161 -7 223 -19z m-1441 -788 c79 -60
150 -114 156 -120 7 -7 32 -28 55 -46 23 -19 48 -40 54 -45 6 -6 50 -45 96
-86 189 -166 464 -454 666 -696 64 -77 220 -289 296 -402 l69 -103 -88 -127
c-347 -505 -760 -942 -1267 -1340 -22 -17 -46 -36 -51 -40 -28 -23 -199 -144
-268 -190 l-77 -53 -63 42 c-145 98 -389 280 -487 365 -245 211 -518 476 -670
650 -170 195 -323 390 -454 581 l-77 112 62 93 c400 598 975 1177 1564 1574
l125 84 108 -72 c59 -39 172 -121 251 -181z m-2349 -2150 c46 -64 248 -319
295 -372 15 -16 52 -59 83 -95 207 -238 642 -634 940 -855 45 -33 81 -62 81
-65 1 -13 -330 -136 -469 -173 -71 -19 -188 -45 -237 -53 -21 -3 -49 -8 -63
-11 -14 -2 -99 -6 -190 -9 -297 -6 -461 44 -596 182 -53 55 -147 204 -128 204
3 0 2 6 -3 13 -9 11 -16 32 -29 92 -29 129 -17 401 26 565 5 19 12 51 15 70 3
19 10 49 15 65 5 17 20 66 34 110 13 44 36 107 51 140 57 129 119 255 124 255
3 0 26 -29 51 -63z m4083 -45 c79 -184 134 -355 162 -497 30 -153 34 -195 39
-350 8 -273 -59 -491 -188 -608 -46 -41 -160 -93 -251 -113 -117 -27 -426 -26
-565 1 -14 2 -36 7 -50 10 -14 2 -38 7 -55 10 -43 7 -167 40 -260 69 -97 31
-335 127 -335 135 1 3 38 33 83 66 96 70 86 63 202 156 394 319 770 707 1065
1101 52 70 98 127 101 127 3 1 27 -48 52 -107z"/>
<path d="M3329 4654 c-112 -17 -176 -36 -329 -98 -37 -15 -129 -72 -194 -120
-215 -159 -368 -388 -436 -651 -47 -179 -46 -400 1 -575 30 -114 113 -310 131
-310 4 0 8 -5 8 -12 0 -18 101 -147 166 -212 61 -61 196 -166 213 -166 5 0 11
-3 13 -7 10 -25 185 -99 313 -133 170 -45 390 -46 565 -1 286 73 528 243 688
483 132 198 200 426 197 658 -3 159 -20 255 -72 395 -144 389 -493 678 -903
746 -94 15 -273 17 -361 3z m366 -605 c80 -29 184 -98 240 -162 56 -63 121
-192 136 -267 50 -262 -77 -524 -312 -639 -92 -45 -160 -62 -259 -63 -315 -3
-579 260 -581 577 -2 406 393 688 776 554z"/>
</g>
</svg>
